# xmcd
#
# Track frame offsets:
#	150
#	22314
#	37704
#	55865
#	73657
#	90072
#	109085
#	131792
#	146387
#	168009
#
# Disc length: 2424 seconds
#
# Revision: 0
# Processed by: cddbd v1.5.1PL0 Copyright (c) Steve Scherf et al.
# Submitted via: dBpowerAMP V4.0
#
DISCID=7a09760a
DTITLE=The Mustangs - Walk a Mile in My Blues
DYEAR=1900
DGENRE=Country
TTITLE0=hard achin' blues
TTITLE1=black and blue
TTITLE2=mama I know [norma's othe song]
TTITLE3=on angel's wings [tracy's song]
TTITLE4=way back when
TTITLE5=eternally
TTITLE6=walk a mile in my blues
TTITLE7=always and forever
TTITLE8=since you've been gone
TTITLE9=full circle
EXTD=
EXTT0=
EXTT1=
EXTT2=
EXTT3=
EXTT4=
EXTT5=
EXTT6=
EXTT7=
EXTT8=
EXTT9=
PLAYORDER=
